<mxfile host="app.diagrams.net" modified="2023-10-17T15:41:06.073Z" agent="Mozilla/5.0 (X11; Linux x86_64; rv:109.0) Gecko/20100101 Firefox/114.0" etag="AmUmKrU86r93t1ZNjXRq" version="22.0.4" type="github">
  <diagram name="Página-1" id="LAN269vinaSvzi9sZn7c">
    <mxGraphModel dx="1434" dy="752" grid="1" gridSize="10" guides="1" tooltips="1" connect="1" arrows="1" fold="1" page="1" pageScale="1" pageWidth="827" pageHeight="1169" math="0" shadow="0">
      <root>
        <mxCell id="0" />
        <mxCell id="1" parent="0" />
        <mxCell id="OFlmP93FzdZlPbCoZFGx-7" style="edgeStyle=orthogonalEdgeStyle;rounded=0;orthogonalLoop=1;jettySize=auto;html=1;endArrow=none;endFill=0;" edge="1" parent="1" source="NlbO883m-P-gswLuD_vB-1" target="OFlmP93FzdZlPbCoZFGx-4">
          <mxGeometry relative="1" as="geometry" />
        </mxCell>
        <mxCell id="OFlmP93FzdZlPbCoZFGx-10" style="edgeStyle=orthogonalEdgeStyle;rounded=0;orthogonalLoop=1;jettySize=auto;html=1;entryX=0.5;entryY=1;entryDx=0;entryDy=0;endArrow=none;endFill=0;" edge="1" parent="1" source="NlbO883m-P-gswLuD_vB-1" target="OFlmP93FzdZlPbCoZFGx-3">
          <mxGeometry relative="1" as="geometry" />
        </mxCell>
        <mxCell id="NlbO883m-P-gswLuD_vB-1" value="Actores" style="whiteSpace=wrap;html=1;align=center;fillColor=#dae8fc;strokeColor=#6c8ebf;" parent="1" vertex="1">
          <mxGeometry x="380" y="70" width="100" height="40" as="geometry" />
        </mxCell>
        <mxCell id="NlbO883m-P-gswLuD_vB-2" value="Películas" style="whiteSpace=wrap;html=1;align=center;fillColor=#d5e8d4;strokeColor=#82b366;" parent="1" vertex="1">
          <mxGeometry x="40" y="340" width="100" height="40" as="geometry" />
        </mxCell>
        <mxCell id="OFlmP93FzdZlPbCoZFGx-48" style="edgeStyle=orthogonalEdgeStyle;rounded=0;orthogonalLoop=1;jettySize=auto;html=1;endArrow=none;endFill=0;" edge="1" parent="1" source="NlbO883m-P-gswLuD_vB-3" target="OFlmP93FzdZlPbCoZFGx-40">
          <mxGeometry relative="1" as="geometry" />
        </mxCell>
        <mxCell id="NlbO883m-P-gswLuD_vB-3" value="Personajes" style="whiteSpace=wrap;html=1;align=center;fillColor=#dae8fc;strokeColor=#6c8ebf;" parent="1" vertex="1">
          <mxGeometry x="380" y="340" width="100" height="40" as="geometry" />
        </mxCell>
        <mxCell id="OFlmP93FzdZlPbCoZFGx-60" style="edgeStyle=orthogonalEdgeStyle;rounded=0;orthogonalLoop=1;jettySize=auto;html=1;entryX=0.5;entryY=0;entryDx=0;entryDy=0;endArrow=none;endFill=0;" edge="1" parent="1" source="NlbO883m-P-gswLuD_vB-4" target="OFlmP93FzdZlPbCoZFGx-59">
          <mxGeometry relative="1" as="geometry" />
        </mxCell>
        <mxCell id="NlbO883m-P-gswLuD_vB-4" value="Capítulos" style="whiteSpace=wrap;html=1;align=center;fillColor=#dae8fc;strokeColor=#6c8ebf;" parent="1" vertex="1">
          <mxGeometry x="700" y="340" width="100" height="40" as="geometry" />
        </mxCell>
        <mxCell id="_lyjDFIsHbw3yAWsq2rJ-2" value="Planetas" style="whiteSpace=wrap;html=1;align=center;fillColor=#dae8fc;strokeColor=#6c8ebf;" parent="1" vertex="1">
          <mxGeometry x="700" y="535" width="100" height="40" as="geometry" />
        </mxCell>
        <mxCell id="OFlmP93FzdZlPbCoZFGx-13" style="edgeStyle=orthogonalEdgeStyle;rounded=0;orthogonalLoop=1;jettySize=auto;html=1;entryX=1;entryY=0.25;entryDx=0;entryDy=0;endArrow=none;endFill=0;" edge="1" parent="1" source="OFlmP93FzdZlPbCoZFGx-1" target="NlbO883m-P-gswLuD_vB-1">
          <mxGeometry relative="1" as="geometry" />
        </mxCell>
        <mxCell id="OFlmP93FzdZlPbCoZFGx-1" value="Fecha" style="ellipse;whiteSpace=wrap;html=1;align=center;fillColor=#d5e8d4;strokeColor=#82b366;" vertex="1" parent="1">
          <mxGeometry x="470" y="10" width="100" height="40" as="geometry" />
        </mxCell>
        <mxCell id="OFlmP93FzdZlPbCoZFGx-2" value="Nacionalidad" style="ellipse;whiteSpace=wrap;html=1;align=center;fillColor=#d5e8d4;strokeColor=#82b366;" vertex="1" parent="1">
          <mxGeometry x="280" y="30" width="100" height="40" as="geometry" />
        </mxCell>
        <mxCell id="OFlmP93FzdZlPbCoZFGx-3" value="Nombre" style="ellipse;whiteSpace=wrap;html=1;align=center;fillColor=#d5e8d4;strokeColor=#82b366;" vertex="1" parent="1">
          <mxGeometry x="140" y="20" width="100" height="40" as="geometry" />
        </mxCell>
        <mxCell id="OFlmP93FzdZlPbCoZFGx-42" style="edgeStyle=orthogonalEdgeStyle;rounded=0;orthogonalLoop=1;jettySize=auto;html=1;endArrow=none;endFill=0;" edge="1" parent="1" source="OFlmP93FzdZlPbCoZFGx-4" target="NlbO883m-P-gswLuD_vB-3">
          <mxGeometry relative="1" as="geometry" />
        </mxCell>
        <mxCell id="OFlmP93FzdZlPbCoZFGx-4" value="Interpreta" style="shape=rhombus;perimeter=rhombusPerimeter;whiteSpace=wrap;html=1;align=center;fillColor=#f8cecc;strokeColor=#b85450;" vertex="1" parent="1">
          <mxGeometry x="370" y="180" width="120" height="60" as="geometry" />
        </mxCell>
        <mxCell id="OFlmP93FzdZlPbCoZFGx-19" value="Visita" style="shape=rhombus;perimeter=rhombusPerimeter;whiteSpace=wrap;html=1;align=center;" vertex="1" parent="1">
          <mxGeometry x="440" y="535" width="120" height="60" as="geometry" />
        </mxCell>
        <mxCell id="OFlmP93FzdZlPbCoZFGx-22" value="Código" style="ellipse;whiteSpace=wrap;html=1;align=center;" vertex="1" parent="1">
          <mxGeometry x="390" y="530" width="100" height="30" as="geometry" />
        </mxCell>
        <mxCell id="OFlmP93FzdZlPbCoZFGx-23" value="Galaxia" style="ellipse;whiteSpace=wrap;html=1;align=center;" vertex="1" parent="1">
          <mxGeometry x="410" y="595" width="100" height="40" as="geometry" />
        </mxCell>
        <mxCell id="OFlmP93FzdZlPbCoZFGx-25" value="Problema" style="ellipse;whiteSpace=wrap;html=1;align=center;" vertex="1" parent="1">
          <mxGeometry x="470" y="490" width="100" height="40" as="geometry" />
        </mxCell>
        <mxCell id="OFlmP93FzdZlPbCoZFGx-52" style="edgeStyle=orthogonalEdgeStyle;rounded=0;orthogonalLoop=1;jettySize=auto;html=1;entryX=0.25;entryY=0;entryDx=0;entryDy=0;endArrow=none;endFill=0;" edge="1" parent="1" source="OFlmP93FzdZlPbCoZFGx-30" target="NlbO883m-P-gswLuD_vB-3">
          <mxGeometry relative="1" as="geometry" />
        </mxCell>
        <mxCell id="OFlmP93FzdZlPbCoZFGx-30" value="Graduación militar" style="ellipse;whiteSpace=wrap;html=1;align=center;fillColor=#d5e8d4;strokeColor=#82b366;" vertex="1" parent="1">
          <mxGeometry x="300" y="270" width="100" height="40" as="geometry" />
        </mxCell>
        <mxCell id="OFlmP93FzdZlPbCoZFGx-54" style="edgeStyle=orthogonalEdgeStyle;rounded=0;orthogonalLoop=1;jettySize=auto;html=1;entryX=1;entryY=0.25;entryDx=0;entryDy=0;endArrow=none;endFill=0;" edge="1" parent="1" source="OFlmP93FzdZlPbCoZFGx-33" target="NlbO883m-P-gswLuD_vB-3">
          <mxGeometry relative="1" as="geometry" />
        </mxCell>
        <mxCell id="OFlmP93FzdZlPbCoZFGx-33" value="Nombre" style="ellipse;whiteSpace=wrap;html=1;align=center;fillColor=#d5e8d4;strokeColor=#82b366;" vertex="1" parent="1">
          <mxGeometry x="530" y="280" width="100" height="40" as="geometry" />
        </mxCell>
        <mxCell id="OFlmP93FzdZlPbCoZFGx-49" style="edgeStyle=orthogonalEdgeStyle;rounded=0;orthogonalLoop=1;jettySize=auto;html=1;exitX=1;exitY=0.5;exitDx=0;exitDy=0;entryX=0;entryY=0.5;entryDx=0;entryDy=0;endArrow=none;endFill=0;" edge="1" parent="1" source="OFlmP93FzdZlPbCoZFGx-40" target="NlbO883m-P-gswLuD_vB-4">
          <mxGeometry relative="1" as="geometry" />
        </mxCell>
        <mxCell id="OFlmP93FzdZlPbCoZFGx-40" value="Participan" style="shape=rhombus;perimeter=rhombusPerimeter;whiteSpace=wrap;html=1;align=center;fillColor=#f8cecc;strokeColor=#b85450;" vertex="1" parent="1">
          <mxGeometry x="550" y="330" width="120" height="60" as="geometry" />
        </mxCell>
        <mxCell id="OFlmP93FzdZlPbCoZFGx-53" style="edgeStyle=orthogonalEdgeStyle;rounded=0;orthogonalLoop=1;jettySize=auto;html=1;entryX=0.75;entryY=0;entryDx=0;entryDy=0;endArrow=none;endFill=0;" edge="1" parent="1" source="OFlmP93FzdZlPbCoZFGx-47" target="NlbO883m-P-gswLuD_vB-3">
          <mxGeometry relative="1" as="geometry" />
        </mxCell>
        <mxCell id="OFlmP93FzdZlPbCoZFGx-47" value="Id" style="ellipse;whiteSpace=wrap;html=1;align=center;fontStyle=4;fillColor=#d5e8d4;strokeColor=#82b366;" vertex="1" parent="1">
          <mxGeometry x="440" y="250" width="100" height="40" as="geometry" />
        </mxCell>
        <mxCell id="OFlmP93FzdZlPbCoZFGx-55" style="edgeStyle=orthogonalEdgeStyle;rounded=0;orthogonalLoop=1;jettySize=auto;html=1;endArrow=none;endFill=0;" edge="1" parent="1" source="OFlmP93FzdZlPbCoZFGx-50" target="NlbO883m-P-gswLuD_vB-3">
          <mxGeometry relative="1" as="geometry" />
        </mxCell>
        <mxCell id="OFlmP93FzdZlPbCoZFGx-57" style="edgeStyle=orthogonalEdgeStyle;rounded=0;orthogonalLoop=1;jettySize=auto;html=1;endArrow=none;endFill=0;" edge="1" parent="1" source="OFlmP93FzdZlPbCoZFGx-50" target="NlbO883m-P-gswLuD_vB-2">
          <mxGeometry relative="1" as="geometry" />
        </mxCell>
        <mxCell id="OFlmP93FzdZlPbCoZFGx-50" value="Aparecen" style="shape=rhombus;perimeter=rhombusPerimeter;whiteSpace=wrap;html=1;align=center;fillColor=#f8cecc;strokeColor=#b85450;" vertex="1" parent="1">
          <mxGeometry x="190" y="330" width="120" height="60" as="geometry" />
        </mxCell>
        <mxCell id="OFlmP93FzdZlPbCoZFGx-61" style="edgeStyle=orthogonalEdgeStyle;rounded=0;orthogonalLoop=1;jettySize=auto;html=1;endArrow=none;endFill=0;" edge="1" parent="1" source="OFlmP93FzdZlPbCoZFGx-59" target="_lyjDFIsHbw3yAWsq2rJ-2">
          <mxGeometry relative="1" as="geometry" />
        </mxCell>
        <mxCell id="OFlmP93FzdZlPbCoZFGx-59" value="Visitan" style="shape=rhombus;perimeter=rhombusPerimeter;whiteSpace=wrap;html=1;align=center;fillColor=#f8cecc;strokeColor=#b85450;" vertex="1" parent="1">
          <mxGeometry x="690" y="430" width="120" height="60" as="geometry" />
        </mxCell>
        <mxCell id="OFlmP93FzdZlPbCoZFGx-62" value="Nave" style="whiteSpace=wrap;html=1;align=center;" vertex="1" parent="1">
          <mxGeometry x="700" y="710" width="100" height="40" as="geometry" />
        </mxCell>
        <mxCell id="OFlmP93FzdZlPbCoZFGx-63" value="Relationship" style="shape=rhombus;perimeter=rhombusPerimeter;whiteSpace=wrap;html=1;align=center;" vertex="1" parent="1">
          <mxGeometry x="690" y="620" width="120" height="60" as="geometry" />
        </mxCell>
      </root>
    </mxGraphModel>
  </diagram>
</mxfile>
